<?xml version="1.0" encoding="utf-8"?>
<svg fill="#000000" viewBox="0 0 22 22" width="22px" height="22px" xmlns="http://www.w3.org/2000/svg">
  <path d="M 11.023 9.083 L 11.023 13.286 L 17.012 13.286 C 16.229 15.833 14.101 17.655 11.023 17.655 C 7.358 17.655 4.386 14.684 4.386 11.02 C 4.386 7.356 7.357 4.385 11.023 4.385 C 12.671 4.385 14.175 4.989 15.336 5.983 L 18.432 2.888 C 16.476 1.106 13.876 0.02 11.023 0.02 C 4.946 0.02 0.02 4.945 0.02 11.02 C 0.02 17.095 4.946 22.02 11.023 22.02 C 20.259 22.02 22.297 13.385 21.392 9.098 L 11.023 9.083 Z"/>
</svg>