<?xml version="1.0" encoding="utf-8"?>
<svg fill="#000000" viewBox="0 0 46 46" width="50px" height="50px" xmlns="http://www.w3.org/2000/svg">
  <path fill="none" stroke="#000000" stroke-miterlimit="10" stroke-width="2" d="M 23.072 19.139 L 23.072 27.545 L 35.05 27.545 C 33.484 32.639 29.228 36.283 23.072 36.283 C 15.741 36.283 9.799 30.342 9.799 23.013 C 9.799 15.684 15.742 9.743 23.072 9.743 C 26.368 9.743 29.376 10.951 31.697 12.939 L 37.889 6.749 C 33.979 3.186 28.78 1.013 23.072 1.013 C 10.919 1.013 1.067 10.863 1.067 23.013 C 1.067 35.163 10.919 45.013 23.072 45.013 C 42.311 45.013 45.62 27.744 43.81 19.168 L 23.072 19.139 Z"/>
</svg>